#!OML:ASF I:\Actors\actors\Patient Classification 2\Patient 1\Session 1\actor1.ASF
:FULLY-SPECIFIED
:DEGREES
522
root 0.291642 18.8968 7.68507 14.1076 8.6841 -10.3543
lowerback 14.7811 -2.25467 -2.70426
upperback 2.55397 -3.57292 -3.20983
thorax -5.61226 -1.71378 -1.1738
lowerneck -2.62111 3.69786 -0.467866
upperneck 42.461 9.12057 -8.24898
head 16.1122 2.66958 -2.36001
rclavicle 1.59028e-014 -3.18055e-015
rhumerus -25.5641 13.9276 -19.4138
rradius 105.993
rwrist -17.218
rhand 22.2979 -33.099
rfingers 7.12502
rthumb 46.6694 -55.9095
lclavicle 1.59028e-014 -3.18055e-015
lhumerus -50.7841 -27.3628 85.9649
lradius 92.5528
lwrist 38.4412
lhand -9.28246 -13.7396
lfingers 7.12502
lthumb 16.6745 15.5642
rfemur -27.1611 3.95418 -2.9044
rtibia 69.9475
rfoot -1.40188 0.318293
rtoes -11.3642
lfemur -29.8101 -10.3641 -7.52267
ltibia 32.3929
lfoot -20.7071 10.5499
ltoes -50.6056
523
root 0.217724 18.8444 7.71179 14.1576 8.02836 -10.5303
lowerback 14.5539 -1.83831 -2.86272
upperback 2.3235 -3.02279 -2.72918
thorax -5.69344 -1.43809 -0.686405
lowerneck -1.97301 3.6209 -0.597457
upperneck 42.4336 9.26808 -8.93173
head 16.0133 2.66578 -2.63242
rclavicle -3.02153e-014 9.54166e-015
rhumerus -24.4235 8.18271 -21.8641
rradius 106.074
rwrist -18.8907
rhand 19.8385 -30.8239
rfingers 7.12502
rthumb 44.3846 -54.5618
lclavicle -3.02153e-014 9.54166e-015
lhumerus -54.282 -29.6 86.1847
lradius 93.5095
lwrist 36.0069
lhand -6.05311 -13.1736
lfingers 7.12502
lthumb 19.7813 15.8398
rfemur -27.2546 2.14768 0.504766
rtibia 64.3466
rfoot -0.43093 1.05439
rtoes -9.73353
lfemur -30.2783 -9.99386 -7.16326
ltibia 33.6592
lfoot -21.4876 10.664
ltoes -50.6099
524
root 0.138984 18.7964 7.7383 14.2284 7.37013 -10.6874
lowerback 14.2923 -1.36104 -3.12293
upperback 2.11592 -2.40393 -2.2556
thorax -5.74034 -1.12638 -0.16187
lowerneck -1.48224 3.42207 -0.627114
upperneck 42.5212 9.2398 -9.60818
head 16.0063 2.59935 -2.94605
rclavicle -9.54166e-015 -2.54444e-014
rhumerus -23.4255 2.40809 -24.803
rradius 106.488
rwrist -21.4515
rhand 18.6178 -29.722
rfingers 7.12502
rthumb 43.2454 -53.8807
lclavicle -9.54166e-015 -2.54444e-014
lhumerus -57.4447 -31.9708 86.243
lradius 94.9217
lwrist 34.3802
lhand -2.13998 -10.5647
lfingers 7.12502
lthumb 23.5391 18.0149
rfemur -27.3925 -0.0378171 4.01224
rtibia 58.961
rfoot 0.915354 2.93258
rtoes -6.72252
lfemur -30.6951 -9.80827 -6.76871
ltibia 34.8162
lfoot -22.2829 10.9378
ltoes -50.5696
525
root 0.0540936 18.7515 7.76419 14.2825 6.7017 -10.7641
lowerback 14.0675 -0.934581 -3.64235
upperback 1.98644 -1.87708 -1.61779
thorax -5.7228 -0.852957 0.70104
lowerneck -1.3179 3.25896 -1.21284
upperneck 42.6543 9.35491 -10.2243
head 16.0917 2.50219 -3.11013
rclavicle -1.66979e-014 -4.77083e-015
rhumerus -21.8523 -3.39456 -28.1248
rradius 107.141
rwrist -24.8782
rhand 18.5675 -29.5216
rfingers 7.12502
rthumb 43.1983 -53.6971
lclavicle -1.66979e-014 -4.77083e-015
lhumerus -60.2956 -33.8461 86.426
lradius 95.9688
lwrist 33.1559
lhand 2.74943 -9.99943
lfingers 7.12502
lthumb 28.2211 17.8956
rfemur -27.5338 -2.77298 7.50562
rtibia 53.8748
rfoot 2.88606 5.26471
rtoes -4.25278
lfemur -30.986 -9.81066 -6.40599
ltibia 35.8054
lfoot -23.0959 11.2913
ltoes -50.3711
526
root -0.0353342 18.7117 7.7915 14.3029 6.07053 -10.6821
lowerback 13.8551 -0.510178 -4.13383
upperback 1.86213 -1.3556 -1.11833
thorax -5.73173 -0.582635 1.40594
lowerneck -1.16372 3.05189 -1.82637
upperneck 42.8462 9.35964 -10.6794
head 16.1901 2.37027 -3.21557
rclavicle 2.62396e-014 1.27222e-014
rhumerus -20.4331 -9.16248 -32.0855
rradius 108.143
rwrist -28.512
rhand 18.4762 -29.6379
rfingers 7.12502
rthumb 43.113 -53.8438
lclavicle 2.62396e-014 1.27222e-014
lhumerus -63.1156 -35.9298 86.6498
lradius 96.7878
lwrist 32.7279
lhand 7.84524 -11.3374
lfingers 7.12502
lthumb 33.0799 15.646
rfemur -27.6129 -5.32548 10.8021
rtibia 49.1901
rfoot 4.82334 7.54406
rtoes -7.62902
lfemur -31.14 -9.79849 -6.21661
ltibia 36.6255
lfoot -23.8087 11.5371
ltoes -50.3044
527
root -0.128042 18.6765 7.82005 14.2511 5.48425 -10.4522
lowerback 13.7173 -0.124061 -4.5286
upperback 1.77601 -0.876846 -0.715246
thorax -5.75936 -0.335251 1.96543
lowerneck -1.16668 2.87427 -2.64592
upperneck 43.1009 9.38897 -10.9273
head 16.3421 2.23069 -3.18843
rclavicle -1.74931e-014 -4.77083e-014
rhumerus -19.0781 -14.5553 -36.4523
rradius 109.495
rwrist -31.8385
rhand 17.7633 -29.7182
rfingers 7.12502
rthumb 42.446 -54.157
lclavicle -1.74931e-014 -4.77083e-014
lhumerus -65.552 -38.1517 86.7382
lradius 98.1613
lwrist 32.6638
lhand 13.5289 -10.1664
lfingers 7.12502
lthumb 38.4651 15.5048
rfemur -27.5855 -7.19112 13.7341
rtibia 45.0046
rfoot 5.47334 9.3957
rtoes -3.46133
lfemur -31.1169 -9.59864 -6.25381
ltibia 37.28
lfoot -24.2635 11.6381
ltoes -50.5467
528
root -0.222259 18.6458 7.85022 14.0992 4.94492 -10.0557
lowerback 13.6492 0.0570146 -5.10358
upperback 1.75355 -0.679965 -0.0634887
thorax -5.74311 -0.220423 2.94327
lowerneck -1.30266 2.93326 -4.40243
upperneck 43.2232 9.9124 -11.1769
head 16.4746 2.14711 -2.91966
rclavicle -1.11319e-014 0
rhumerus -16.6791 -18.7156 -40.9893
rradius 110.744
rwrist -34.9426
rhand 17.5676 -29.9437
rfingers 7.12502
rthumb 42.2627 -54.4451
lclavicle -1.11319e-014 0
lhumerus -67.6429 -39.5815 87.0731
lradius 99.3174
lwrist 32.5789
lhand 19.3162 -9.2475
lfingers 7.12502
lthumb 43.8976 14.6735
rfemur -27.3691 -8.35461 16.1661
rtibia 41.3716
rfoot 4.38636 10.2952
rtoes -5.16081
lfemur -30.8839 -9.37229 -6.51997
ltibia 37.7614
lfoot -24.5504 11.6829
ltoes -50.786
529
root -0.315449 18.6182 7.88355 13.8628 4.50404 -9.43979
lowerback 13.5049 0.18999 -5.65045
upperback 1.84557 -0.53603 0.545371
thorax -5.56636 -0.139692 3.87082
lowerneck -1.42706 2.98587 -6.19105
upperneck 43.1337 10.461 -11.5795
head 16.5034 2.06601 -2.70182
rclavicle -7.95139e-016 1.59028e-015
rhumerus -13.9986 -22.169 -45.74
rradius 111.664
rwrist -37.6396
rhand 17.915 -29.8339
rfingers 7.12502
rthumb 42.5881 -54.2238
lclavicle -7.95139e-016 1.59028e-015
lhumerus -69.1239 -41.0635 87.2986
lradius 100.267
lwrist 32.6592
lhand 24.8456 -8.35433
lfingers 7.12502
lthumb 49.0194 13.3685
rfemur -26.9314 -8.96795 17.9878
rtibia 38.3035
rfoot 1.4154 10.1886
rtoes -8.807
lfemur -30.5006 -9.18704 -7.05873
ltibia 38.1155
lfoot -24.8429 11.6491
ltoes -50.9569
530
root -0.410703 18.5915 7.91695 13.522 4.28927 -8.63103
lowerback 13.325 0.247929 -6.19561
upperback 2.06862 -0.481572 1.19818
thorax -5.22416 -0.113459 4.8621
lowerneck -1.66379 3.05002 -8.19324
upperneck 42.9051 11.0569 -11.9782
head 16.4809 1.98146 -2.43135
rclavicle 3.18055e-014 1.27222e-014
rhumerus -11.5413 -25.0814 -50.6844
rradius 112.54
rwrist -39.9645
rhand 18.1053 -28.4303
rfingers 7.12502
rthumb 42.7662 -52.7584
lclavicle 3.18055e-014 1.27222e-014
lhumerus -69.7856 -42.4379 87.2986
lradius 101.066
lwrist 33.0939
lhand 30.1208 -7.41074
lfingers 7.12502
lthumb 53.8155 11.5513
rfemur -26.3396 -9.16159 19.2498
rtibia 35.9756
rfoot -2.73748 8.65379
rtoes -15.3117
lfemur -30.0152 -8.93962 -7.82765
ltibia 38.353
lfoot -25.0408 11.4084
ltoes -51.1403
